<svg xmlns="http://www.w3.org/2000/svg" xmlns:xlink="http://www.w3.org/1999/xlink" xmlns:lucid="lucid" width="938.87" height="519.3"><g transform="translate(-421.1296296296296 -80.0961623090617)" lucid:page-tab-id="0_0"><path d="M0 0h1870.87v1322.83H0z" fill="#fff"/><path d="M480 382.54h50V460h-50v-77.46z" fill="#4f4f4f"/><path d="M480 378.36h50v77.45h-50v-77.44z" fill="#7d7c7c"/><path d="M484.7 340h40.6v40.5h-40.6V340z" fill="#7d7c7c"/><path d="M488.13 394.98h5.63v5.6h-5.63V395zM488.13 404.67h5.63v5.6h-5.63v-5.6zM488.13 385.3h5.63v5.62h-5.63v-5.6zM488.13 414.33h5.63v5.6h-5.63v-5.6zM488.13 424h5.63v5.6h-5.63V424zM488.13 433.66h5.63v5.6h-5.63v-5.6zM488.13 443.34h5.63v5.6h-5.63v-5.6zM497.5 394.98h5.63v5.6h-5.63V395zM497.5 404.67h5.63v5.6h-5.63v-5.6zM497.5 385.3h5.63v5.62h-5.63v-5.6zM497.5 414.33h5.63v5.6h-5.63v-5.6zM497.5 424h5.63v5.6h-5.63V424zM497.5 433.66h5.63v5.6h-5.63v-5.6zM497.5 443.34h5.63v5.6h-5.63v-5.6zM506.87 394.98h5.63v5.6h-5.63V395zM506.87 404.67h5.63v5.6h-5.63v-5.6zM506.87 385.3h5.63v5.62h-5.63v-5.6zM506.87 414.33h5.63v5.6h-5.63v-5.6zM506.87 424h5.63v5.6h-5.63V424zM506.87 433.66h5.63v5.6h-5.63v-5.6zM506.87 443.34h5.63v5.6h-5.63v-5.6zM516.24 394.98h5.63v5.6h-5.63V395zM516.24 404.67h5.63v5.6h-5.63v-5.6zM516.24 385.3h5.63v5.62h-5.63v-5.6zM516.24 414.33h5.63v5.6h-5.63v-5.6zM516.24 424h5.63v5.6h-5.63V424zM516.24 433.66h5.63v5.6h-5.63v-5.6zM516.24 443.34h5.63v5.6h-5.63v-5.6zM492.8 347.75h5.64v5.6h-5.63v-5.6zM492.8 357.44h5.64v5.6h-5.63v-5.6zM492.8 367.1h5.64v5.6h-5.63v-5.6zM502.18 347.75h5.63v5.6h-5.62v-5.6zM502.18 357.44h5.63v5.6h-5.62v-5.6zM502.18 367.1h5.63v5.6h-5.62v-5.6zM511.56 347.75h5.62v5.6h-5.62v-5.6zM511.56 357.44h5.62v5.6h-5.62v-5.6zM511.56 367.1h5.62v5.6h-5.62v-5.6z" fill="#fff"/><use xlink:href="#a" transform="matrix(1,0,0,1,480,460) translate(-37.870370370370374 17.77777777777778)"/><path d="M492.1 308.45c-1.88-2.74-1.18-6.47 1.56-8.34l150.38-102.9c2.74-1.86 3.44-5.6 1.57-8.33l-4.5-6.6c-1.88-2.74-.8-4.32 2.43-3.54l40.64 9.86c3.22.77 5.47 4.06 5.04 7.35l-5.53 41.44c-.44 3.28-2.3 3.72-4.18 1l-4.53-6.6c-1.87-2.75-5.6-3.45-8.34-1.58l-150.38 102.9c-2.74 1.87-6.47 1.17-8.34-1.57z" stroke="#5e5e5e" stroke-width="3" fill="#fff"/><use xlink:href="#b" transform="matrix(0.8253072612498318,-0.5646839155919902,0.5646839155919902,0.8253072612498318,484.36259926052946,288.29082627829587) translate(84.30864197530865 39.65277777777778)"/><path d="M707.36 164.96c-.7-3.24 1.37-6.43 4.6-7.13l132.77-28.55c3.24-.7 5.3-3.9 4.6-7.13l-1.67-7.82c-.7-3.24.9-4.3 3.6-2.35l33.88 24.5c2.68 1.95 3.52 5.85 1.87 8.72l-20.8 36.27c-1.65 2.88-3.55 2.58-4.25-.66l-1.68-7.8c-.7-3.25-3.9-5.3-7.13-4.62l-132.76 28.56c-3.24.7-6.43-1.36-7.13-4.6z" stroke="#5e5e5e" stroke-width="3" fill="#fff"/><use xlink:href="#c" transform="matrix(0.9776420087223022,-0.2102762534891232,0.2102762534891232,0.9776420087223022,707.8350471939054,143.3805460113236) translate(8.432098765432102 39.65277777777778)"/><use xlink:href="#d" transform="matrix(0.9776420087223022,-0.2102762534891232,0.2102762534891232,0.9776420087223022,707.8350471939054,143.3805460113236) translate(95.96296296296296 39.65277777777778)"/><use xlink:href="#e" transform="matrix(0.9776420087223022,-0.2102762534891232,0.2102762534891232,0.9776420087223022,707.8350471939054,143.3805460113236) translate(108.30864197530865 39.65277777777778)"/><path d="M900.97 126.03c.23-3.3 3.1-5.8 6.4-5.57l95.08 6.6c3.3.24 6.17-2.26 6.4-5.56l.55-7.98c.23-3.3 2.07-3.87 4.12-1.26l25.75 32.94c2.04 2.6 1.76 6.6-.62 8.9l-30.06 29.07c-2.4 2.3-4.14 1.5-3.9-1.82l.55-7.98c.23-3.3-2.27-6.17-5.57-6.4l-95.08-6.6c-3.3-.23-5.8-3.1-5.57-6.4z" stroke="#5e5e5e" stroke-width="3" fill="#fff"/><use xlink:href="#f" transform="matrix(0.9975959422734567,0.06929888858801399,-0.06929888858801399,0.9975959422734567,907.4134408119477,105.43063646336904) translate(42.660493827160494 39.65277777777778)"/><path d="M1068.8 149.12c2.1-2.58 5.87-2.97 8.45-.9l172.7 139.8c2.57 2.1 6.34 1.7 8.43-.88l5.03-6.22c2.1-2.57 3.93-1.98 4.1 1.33l2.2 41.76c.16 3.32-2.35 6.42-5.63 6.94l-41.3 6.56c-3.27.52-4.23-1.15-2.14-3.72l5.03-6.22c2.1-2.58 1.7-6.36-.9-8.44l-172.68-139.8c-2.58-2.08-2.97-5.86-.9-8.44z" stroke="#5e5e5e" stroke-width="3" fill="#fff"/><use xlink:href="#g" transform="matrix(0.7772448707074855,0.6291982286679646,-0.6291982286679646,0.7772448707074855,1085.9081623569164,135.9424206685777) translate(42.05555555555556 39.65277777777778)"/><use xlink:href="#d" transform="matrix(0.7772448707074855,0.6291982286679646,-0.6291982286679646,0.7772448707074855,1085.9081623569164,135.9424206685777) translate(117.24074074074073 39.65277777777778)"/><use xlink:href="#h" transform="matrix(0.7772448707074855,0.6291982286679646,-0.6291982286679646,0.7772448707074855,1085.9081623569164,135.9424206685777) translate(129.58641975308643 39.65277777777778)"/><path d="M1268.06 394.78h-25.93c-1.2 0-2.13-.96-2.13-2.13v-3.17c0-11.86 7.8-21.8 19.36-24.6.53-.1 1.03-.05 1.52.22 3.4 1.83 7.1 1.83 10.5 0 .5-.27.98-.33 1.52-.2 3.03.74 5.53 1.82 8.12 3.56l-2.38 3.53c-1.93-1.27-3.73-2.1-6-2.7-4.3 1.97-8.73 1.97-13.03 0-9.22 2.57-15.33 10.63-15.33 20.18v1.05h23.8z" stroke="#fff" stroke-opacity="0" fill="#232f3e"/><path d="M1266.1 370.63c-7.7 0-13.97-6.24-13.97-13.93 0-7.7 6.26-13.94 13.97-13.94 7.7-.08 14 6.1 14.07 13.77.06 5.32-2.64 9.86-7.32 12.37-2.16 1.2-4.26 1.73-6.75 1.73zm0-23.63c-5.4 0-9.8 4.32-9.82 9.7 0 3.65 1.85 6.77 5.08 8.5 3.05 1.64 6.42 1.64 9.47 0 3.26-1.76 5.13-4.94 5.08-8.64-.05-5.33-4.45-9.6-9.8-9.54zM1337.9 394.78h-25.93v-4.25h23.8v-1.05c0-9.58-6.13-17.63-15.33-20.2-4.32 2-8.76 2-13.08 0-2.26.63-4.1 1.5-6.04 2.84l-2.42-3.5c2.6-1.8 5.1-2.93 8.14-3.7.53-.13 1.06-.07 1.56.2 3.37 1.83 7.1 1.83 10.52 0 .5-.27 1-.33 1.52-.2 11.55 2.77 19.36 12.7 19.36 24.56v3.17c0 1.17-.95 2.1-2.1 2.13z" stroke="#fff" stroke-opacity="0" fill="#232f3e"/><path d="M1313.85 370.63c-7.76 0-14.04-6.32-14.04-14.07s6.34-14 14.1-14c7.78 0 14.05 6.3 14.05 14.06 0 5.28-2.67 9.77-7.32 12.3-2.2 1.18-4.3 1.7-6.78 1.7zm0-23.62c-5.37 0-9.76 4.3-9.8 9.7-.02 3.65 1.84 6.77 5.08 8.48 3.03 1.66 6.4 1.66 9.48 0 3.3-1.74 5.2-4.94 5.13-8.67-.1-5.33-4.53-9.6-9.88-9.5zM1323.98 442.55h-68.05c-1.16 0-2.1-.94-2.1-2.12v-4.5c-.07-16.37 10.77-30.12 26.66-33.98.57-.16 1.08-.08 1.58.16 5.06 2.74 10.62 2.74 15.75 0 .44-.23.94-.3 1.52-.15 15.97 3.82 26.8 17.57 26.73 33.97v4.5c0 1.2-.94 2.13-2.1 2.13zm-65.88-4.23h63.72v-2.4c0-14.08-9.1-25.92-22.76-29.58-6 2.9-12.28 2.9-18.28 0-13.65 3.66-22.68 15.5-22.68 29.58z" stroke="#fff" stroke-opacity="0" fill="#232f3e"/><path d="M1290.03 408.35c-3.37 0-6.25-.72-9.24-2.33-9.28-5.08-12.7-16.67-7.63-25.96 5.1-9.25 16.7-12.65 26.02-7.6 9.26 5.08 12.67 16.66 7.6 25.95-1.83 3.38-4.24 5.78-7.6 7.62-2.96 1.6-5.84 2.33-9.17 2.33zm0-33.45c-5.56-.08-10.35 2.7-13.03 7.6-3.83 7.08-1.23 15.95 5.86 19.8 4.6 2.46 9.66 2.46 14.26 0 4.94-2.66 7.78-7.44 7.7-13.03-.12-8.02-6.74-14.5-14.8-14.37z" stroke="#fff" stroke-opacity="0" fill="#232f3e"/><path d="M1338.47 394.78h-49.65c-.84 0-1.53-.68-1.53-1.54v-3.3c-.06-11.93 7.85-21.96 19.44-24.78.42-.12.8-.06 1.16.12 3.7 2 7.75 2 11.5 0 .3-.18.68-.24 1.1-.12 11.65 2.8 19.55 12.82 19.5 24.78v3.3c0 .86-.7 1.54-1.53 1.54zm-48.07-3.1h46.5v-1.74c0-10.27-6.65-18.9-16.6-21.58-4.4 2.1-8.97 2.1-13.35 0-9.96 2.68-16.55 11.3-16.55 21.58z" stroke="#fff" stroke-opacity="0" stroke-width=".73" fill="#fff" fill-opacity="0"/><path d="M1291.18 394.78h-49.65c-.84 0-1.53-.68-1.53-1.54v-3.3c-.05-11.93 7.85-21.96 19.45-24.78.42-.12.8-.06 1.16.12 3.7 2 7.76 2 11.5 0 .32-.18.68-.24 1.1-.12 11.65 2.8 19.56 12.82 19.5 24.78v3.3c0 .86-.68 1.54-1.52 1.54zm-48.07-3.1h46.5v-1.74c0-10.27-6.64-18.9-16.6-21.58-4.38 2.1-8.97 2.1-13.34 0-9.96 2.68-16.55 11.3-16.55 21.58z" stroke="#fff" stroke-opacity="0" stroke-width=".73" fill="#fff" fill-opacity="0"/><use xlink:href="#i" transform="matrix(1,0,0,1,1210,451.5493388482694) translate(46.141975308641975 17.77777777777778)"/><path d="M1243.6 473.53c.86 3.2-1.04 6.5-4.24 7.34L985.74 548.5c-3.2.86-5.1 4.14-4.26 7.35l2.06 7.73c.86 3.2-.7 4.33-3.48 2.52l-35.03-22.83c-2.78-1.8-3.8-5.66-2.3-8.6l19.02-37.25c1.5-2.95 3.42-2.75 4.27.45l2.07 7.73c.84 3.2 4.13 5.1 7.33 4.25l253.62-67.63c3.2-.85 6.5 1.05 7.34 4.25z" stroke="#5e5e5e" stroke-width="3" fill="#fff"/><use xlink:href="#j" transform="matrix(0.9662349396012462,-0.257662650560333,0.257662650560333,0.9662349396012462,935.812981928394,504.8934638611547) translate(114.41240740740741 39.96527777777778)"/><path d="M917.57 553.8c-.58 3.25-3.7 5.43-6.95 4.85L617.9 507c-3.28-.58-6.4 1.6-6.97 4.86l-1.4 7.88c-.56 3.26-2.45 3.63-4.2.82l-22.15-35.47c-1.76-2.82-1.06-6.75 1.55-8.8l32.95-25.74c2.6-2.04 4.26-1.05 3.68 2.2l-1.4 7.9c-.57 3.26 1.6 6.37 4.88 6.94l292.73 51.66c3.26.58 5.44 3.7 4.86 6.95z" stroke="#5e5e5e" stroke-width="3" fill="#fff"/><g><use xlink:href="#k" transform="matrix(0.9847835588179369,0.17378533390904738,-0.17378533390904738,0.9847835588179369,591.0064044809066,446.4015021109176) translate(135.06055555555554 39.65277777777778)"/></g><path d="M760 286.74c0-3.3 2.7-6 6-6h293.17c3.3 0 6 2.7 6 6v128.6c0 3.32-2.7 6-6 6H766c-3.3 0-6-2.68-6-6z" stroke="#000" stroke-opacity="0" stroke-width="3" fill="#fff" fill-opacity="0"/><g><use xlink:href="#l" transform="matrix(1,0,0,1,765,285.74194476866745) translate(85.12962962962965 30.760416666666657)"/><use xlink:href="#m" transform="matrix(1,0,0,1,765,285.74194476866745) translate(65.9166666666667 70.76041666666664)"/><use xlink:href="#n" transform="matrix(1,0,0,1,765,285.74194476866745) translate(71.28703703703707 110.76041666666663)"/></g><defs><path fill="#333" d="M140-251c81 0 123 46 123 126C263-46 219 4 140 4 59 4 17-45 17-125s42-126 123-126zm0 227c63 0 89-41 89-101s-29-99-89-99c-61 0-89 39-89 99S79-25 140-24" id="o"/><path fill="#333" d="M114-163C36-179 61-72 57 0H25l-1-190h30c1 12-1 29 2 39 6-27 23-49 58-41v29" id="p"/><path fill="#333" d="M177-190C167-65 218 103 67 71c-23-6-38-20-44-43l32-5c15 47 100 32 89-28v-30C133-14 115 1 83 1 29 1 15-40 15-95c0-56 16-97 71-98 29-1 48 16 59 35 1-10 0-23 2-32h30zM94-22c36 0 50-32 50-73 0-42-14-75-50-75-39 0-46 34-46 75s6 73 46 73" id="q"/><path fill="#333" d="M141-36C126-15 110 5 73 4 37 3 15-17 15-53c-1-64 63-63 125-63 3-35-9-54-41-54-24 1-41 7-42 31l-33-3c5-37 33-52 76-52 45 0 72 20 72 64v82c-1 20 7 32 28 27v20c-31 9-61-2-59-35zM48-53c0 20 12 33 32 33 41-3 63-29 60-74-43 2-92-5-92 41" id="r"/><path fill="#333" d="M117-194c89-4 53 116 60 194h-32v-121c0-31-8-49-39-48C34-167 62-67 57 0H25l-1-190h30c1 10-1 24 2 32 11-22 29-35 61-36" id="s"/><path fill="#333" d="M24-231v-30h32v30H24zM24 0v-190h32V0H24" id="t"/><path fill="#333" d="M9 0v-24l116-142H16v-24h144v24L44-24h123V0H9" id="u"/><path fill="#333" d="M59-47c-2 24 18 29 38 22v24C64 9 27 4 27-40v-127H5v-23h24l9-43h21v43h35v23H59v120" id="v"/><path fill="#333" d="M100-194c62-1 85 37 85 99 1 63-27 99-86 99S16-35 15-95c0-66 28-99 85-99zM99-20c44 1 53-31 53-75 0-43-8-75-51-75s-53 32-53 75 10 74 51 75" id="w"/><g id="a"><use transform="matrix(0.06172839506172839,0,0,0.06172839506172839,0,0)" xlink:href="#o"/><use transform="matrix(0.06172839506172839,0,0,0.06172839506172839,17.28395061728395,0)" xlink:href="#p"/><use transform="matrix(0.06172839506172839,0,0,0.06172839506172839,24.629629629629626,0)" xlink:href="#q"/><use transform="matrix(0.06172839506172839,0,0,0.06172839506172839,36.9753086419753,0)" xlink:href="#r"/><use transform="matrix(0.06172839506172839,0,0,0.06172839506172839,49.32098765432098,0)" xlink:href="#s"/><use transform="matrix(0.06172839506172839,0,0,0.06172839506172839,61.66666666666666,0)" xlink:href="#t"/><use transform="matrix(0.06172839506172839,0,0,0.06172839506172839,66.5432098765432,0)" xlink:href="#u"/><use transform="matrix(0.06172839506172839,0,0,0.06172839506172839,77.65432098765432,0)" xlink:href="#r"/><use transform="matrix(0.06172839506172839,0,0,0.06172839506172839,90,0)" xlink:href="#v"/><use transform="matrix(0.06172839506172839,0,0,0.06172839506172839,96.17283950617283,0)" xlink:href="#t"/><use transform="matrix(0.06172839506172839,0,0,0.06172839506172839,101.04938271604938,0)" xlink:href="#w"/><use transform="matrix(0.06172839506172839,0,0,0.06172839506172839,113.39506172839506,0)" xlink:href="#s"/></g><path fill="#333" d="M30-248c87 1 191-15 191 75 0 78-77 80-158 76V0H30v-248zm33 125c57 0 124 11 124-50 0-59-68-47-124-48v98" id="x"/><path fill="#333" d="M24 0v-261h32V0H24" id="y"/><g id="b"><use transform="matrix(0.06172839506172839,0,0,0.06172839506172839,0,0)" xlink:href="#x"/><use transform="matrix(0.06172839506172839,0,0,0.06172839506172839,14.814814814814813,0)" xlink:href="#y"/><use transform="matrix(0.06172839506172839,0,0,0.06172839506172839,19.691358024691354,0)" xlink:href="#r"/><use transform="matrix(0.06172839506172839,0,0,0.06172839506172839,32.03703703703703,0)" xlink:href="#s"/></g><path fill="#333" d="M30-248c118-7 216 8 213 122C240-48 200 0 122 0H30v-248zM63-27c89 8 146-16 146-99s-60-101-146-95v194" id="z"/><path fill="#333" d="M100-194c63 0 86 42 84 106H49c0 40 14 67 53 68 26 1 43-12 49-29l28 8c-11 28-37 45-77 45C44 4 14-33 15-96c1-61 26-98 85-98zm52 81c6-60-76-77-97-28-3 7-6 17-6 28h103" id="A"/><path fill="#333" d="M108 0H70L1-190h34L89-25l56-165h34" id="B"/><path fill="#333" d="M115-194c55 1 70 41 70 98S169 2 115 4C84 4 66-9 55-30l1 105H24l-1-265h31l2 30c10-21 28-34 59-34zm-8 174c40 0 45-34 45-75s-6-73-45-74c-42 0-51 32-51 76 0 43 10 73 51 73" id="C"/><g id="c"><use transform="matrix(0.06172839506172839,0,0,0.06172839506172839,0,0)" xlink:href="#z"/><use transform="matrix(0.06172839506172839,0,0,0.06172839506172839,15.987654320987653,0)" xlink:href="#A"/><use transform="matrix(0.06172839506172839,0,0,0.06172839506172839,28.333333333333332,0)" xlink:href="#B"/><use transform="matrix(0.06172839506172839,0,0,0.06172839506172839,39.44444444444444,0)" xlink:href="#A"/><use transform="matrix(0.06172839506172839,0,0,0.06172839506172839,51.79012345679012,0)" xlink:href="#y"/><use transform="matrix(0.06172839506172839,0,0,0.06172839506172839,56.666666666666664,0)" xlink:href="#w"/><use transform="matrix(0.06172839506172839,0,0,0.06172839506172839,69.01234567901234,0)" xlink:href="#C"/></g><path fill="#333" d="M0 4l72-265h28L28 4H0" id="D"/><use transform="matrix(0.06172839506172839,0,0,0.06172839506172839,0,0)" xlink:href="#D" id="d"/><path fill="#333" d="M160-131c35 5 61 23 61 61C221 17 115-2 30 0v-248c76 3 177-17 177 60 0 33-19 50-47 57zm-97-11c50-1 110 9 110-42 0-47-63-36-110-37v79zm0 115c55-2 124 14 124-45 0-56-70-42-124-44v89" id="E"/><path fill="#333" d="M84 4C-5 8 30-112 23-190h32v120c0 31 7 50 39 49 72-2 45-101 50-169h31l1 190h-30c-1-10 1-25-2-33-11 22-28 36-60 37" id="F"/><path fill="#333" d="M85-194c31 0 48 13 60 33l-1-100h32l1 261h-30c-2-10 0-23-3-31C134-8 116 4 85 4 32 4 16-35 15-94c0-66 23-100 70-100zm9 24c-40 0-46 34-46 75 0 40 6 74 45 74 42 0 51-32 51-76 0-42-9-74-50-73" id="G"/><g id="e"><use transform="matrix(0.06172839506172839,0,0,0.06172839506172839,0,0)" xlink:href="#E"/><use transform="matrix(0.06172839506172839,0,0,0.06172839506172839,14.814814814814813,0)" xlink:href="#F"/><use transform="matrix(0.06172839506172839,0,0,0.06172839506172839,27.160493827160494,0)" xlink:href="#t"/><use transform="matrix(0.06172839506172839,0,0,0.06172839506172839,32.03703703703704,0)" xlink:href="#y"/><use transform="matrix(0.06172839506172839,0,0,0.06172839506172839,36.91358024691358,0)" xlink:href="#G"/></g><path fill="#333" d="M127-220V0H93v-220H8v-28h204v28h-85" id="H"/><path fill="#333" d="M135-143c-3-34-86-38-87 0 15 53 115 12 119 90S17 21 10-45l28-5c4 36 97 45 98 0-10-56-113-15-118-90-4-57 82-63 122-42 12 7 21 19 24 35" id="I"/><g id="f"><use transform="matrix(0.06172839506172839,0,0,0.06172839506172839,0,0)" xlink:href="#H"/><use transform="matrix(0.06172839506172839,0,0,0.06172839506172839,11.049382716049381,0)" xlink:href="#A"/><use transform="matrix(0.06172839506172839,0,0,0.06172839506172839,23.39506172839506,0)" xlink:href="#I"/><use transform="matrix(0.06172839506172839,0,0,0.06172839506172839,34.50617283950617,0)" xlink:href="#v"/></g><path fill="#333" d="M179-190L93 31C79 59 56 82 12 73V49c39 6 53-20 64-50L1-190h34L92-34l54-156h33" id="J"/><g id="g"><use transform="matrix(0.06172839506172839,0,0,0.06172839506172839,0,0)" xlink:href="#z"/><use transform="matrix(0.06172839506172839,0,0,0.06172839506172839,15.987654320987653,0)" xlink:href="#A"/><use transform="matrix(0.06172839506172839,0,0,0.06172839506172839,28.333333333333332,0)" xlink:href="#C"/><use transform="matrix(0.06172839506172839,0,0,0.06172839506172839,40.67901234567901,0)" xlink:href="#y"/><use transform="matrix(0.06172839506172839,0,0,0.06172839506172839,45.55555555555556,0)" xlink:href="#w"/><use transform="matrix(0.06172839506172839,0,0,0.06172839506172839,57.901234567901234,0)" xlink:href="#J"/></g><path fill="#333" d="M233-177c-1 41-23 64-60 70L243 0h-38l-65-103H63V0H30v-248c88 3 205-21 203 71zM63-129c60-2 137 13 137-47 0-61-80-42-137-45v92" id="K"/><g id="h"><use transform="matrix(0.06172839506172839,0,0,0.06172839506172839,0,0)" xlink:href="#K"/><use transform="matrix(0.06172839506172839,0,0,0.06172839506172839,15.987654320987653,0)" xlink:href="#A"/><use transform="matrix(0.06172839506172839,0,0,0.06172839506172839,28.333333333333332,0)" xlink:href="#y"/><use transform="matrix(0.06172839506172839,0,0,0.06172839506172839,33.20987654320987,0)" xlink:href="#A"/><use transform="matrix(0.06172839506172839,0,0,0.06172839506172839,45.55555555555555,0)" xlink:href="#r"/><use transform="matrix(0.06172839506172839,0,0,0.06172839506172839,57.90123456790123,0)" xlink:href="#I"/><use transform="matrix(0.06172839506172839,0,0,0.06172839506172839,69.01234567901234,0)" xlink:href="#A"/></g><path fill="#333" d="M212-179c-10-28-35-45-73-45-59 0-87 40-87 99 0 60 29 101 89 101 43 0 62-24 78-52l27 14C228-24 195 4 139 4 59 4 22-46 18-125c-6-104 99-153 187-111 19 9 31 26 39 46" id="L"/><g id="i"><use transform="matrix(0.06172839506172839,0,0,0.06172839506172839,0,0)" xlink:href="#L"/><use transform="matrix(0.06172839506172839,0,0,0.06172839506172839,15.987654320987653,0)" xlink:href="#y"/><use transform="matrix(0.06172839506172839,0,0,0.06172839506172839,20.864197530864196,0)" xlink:href="#t"/><use transform="matrix(0.06172839506172839,0,0,0.06172839506172839,25.74074074074074,0)" xlink:href="#A"/><use transform="matrix(0.06172839506172839,0,0,0.06172839506172839,38.08641975308642,0)" xlink:href="#s"/><use transform="matrix(0.06172839506172839,0,0,0.06172839506172839,50.432098765432094,0)" xlink:href="#v"/><use transform="matrix(0.06172839506172839,0,0,0.06172839506172839,56.60493827160494,0)" xlink:href="#I"/></g><g id="j"><use transform="matrix(0.06172839506172839,0,0,0.06172839506172839,0,0)" xlink:href="#o"/><use transform="matrix(0.06172839506172839,0,0,0.06172839506172839,17.28395061728395,0)" xlink:href="#C"/><use transform="matrix(0.06172839506172839,0,0,0.06172839506172839,29.629629629629626,0)" xlink:href="#A"/><use transform="matrix(0.06172839506172839,0,0,0.06172839506172839,41.9753086419753,0)" xlink:href="#p"/><use transform="matrix(0.06172839506172839,0,0,0.06172839506172839,49.32098765432098,0)" xlink:href="#r"/><use transform="matrix(0.06172839506172839,0,0,0.06172839506172839,61.66666666666666,0)" xlink:href="#v"/><use transform="matrix(0.06172839506172839,0,0,0.06172839506172839,67.83950617283949,0)" xlink:href="#A"/></g><path fill="#333" d="M240 0l2-218c-23 76-54 145-80 218h-23L58-218 59 0H30v-248h44l77 211c21-75 51-140 76-211h43V0h-30" id="M"/><g id="k"><use transform="matrix(0.06172839506172839,0,0,0.06172839506172839,0,0)" xlink:href="#M"/><use transform="matrix(0.06172839506172839,0,0,0.06172839506172839,18.456790123456788,0)" xlink:href="#w"/><use transform="matrix(0.06172839506172839,0,0,0.06172839506172839,30.80246913580247,0)" xlink:href="#s"/><use transform="matrix(0.06172839506172839,0,0,0.06172839506172839,43.148148148148145,0)" xlink:href="#t"/><use transform="matrix(0.06172839506172839,0,0,0.06172839506172839,48.02469135802469,0)" xlink:href="#v"/><use transform="matrix(0.06172839506172839,0,0,0.06172839506172839,54.19753086419753,0)" xlink:href="#w"/><use transform="matrix(0.06172839506172839,0,0,0.06172839506172839,66.54320987654322,0)" xlink:href="#p"/></g><path fill="#333" d="M24-248c120-7 223 5 221 122C244-46 201 0 124 0H24v-248zM76-40c74 7 117-18 117-86 0-67-45-88-117-82v168" id="N"/><path fill="#333" d="M185-48c-13 30-37 53-82 52C43 2 14-33 14-96s30-98 90-98c62 0 83 45 84 108H66c0 31 8 55 39 56 18 0 30-7 34-22zm-45-69c5-46-57-63-70-21-2 6-4 13-4 21h74" id="O"/><path fill="#333" d="M128 0H69L1-190h53L99-40l48-150h52" id="P"/><path fill="#333" d="M140-251c80 0 125 45 125 126S219 4 139 4C58 4 15-44 15-125s44-126 125-126zm-1 214c52 0 73-35 73-88 0-50-21-86-72-86-52 0-73 35-73 86s22 88 72 88" id="Q"/><path fill="#333" d="M135-194c53 0 70 44 70 98 0 56-19 98-73 100-31 1-45-17-59-34 3 33 2 69 2 105H25l-1-265h48c2 10 0 23 3 31 11-24 29-35 60-35zM114-30c33 0 39-31 40-66 0-38-9-64-40-64-56 0-55 130 0 130" id="R"/><path fill="#333" d="M137-138c1-29-70-34-71-4 15 46 118 7 119 86 1 83-164 76-172 9l43-7c4 19 20 25 44 25 33 8 57-30 24-41C81-84 22-81 20-136c-2-80 154-74 161-7" id="S"/><g id="l"><use transform="matrix(0.09259259259259256,0,0,0.09259259259259256,0,0)" xlink:href="#N"/><use transform="matrix(0.09259259259259256,0,0,0.09259259259259256,23.981481481481474,0)" xlink:href="#O"/><use transform="matrix(0.09259259259259256,0,0,0.09259259259259256,42.499999999999986,0)" xlink:href="#P"/><use transform="matrix(0.09259259259259256,0,0,0.09259259259259256,61.0185185185185,0)" xlink:href="#Q"/><use transform="matrix(0.09259259259259256,0,0,0.09259259259259256,86.94444444444441,0)" xlink:href="#R"/><use transform="matrix(0.09259259259259256,0,0,0.09259259259259256,107.22222222222219,0)" xlink:href="#S"/></g><path fill="#333" d="M67-125c0 53 21 87 73 88 37 1 54-22 65-47l45 17C233-25 199 4 140 4 58 4 20-42 15-125 8-235 124-281 211-232c18 10 29 29 36 50l-46 12c-8-25-30-41-62-41-52 0-71 34-72 86" id="T"/><path fill="#333" d="M110-194c64 0 96 36 96 99 0 64-35 99-97 99-61 0-95-36-95-99 0-62 34-99 96-99zm-1 164c35 0 45-28 45-65 0-40-10-65-43-65-34 0-45 26-45 65 0 36 10 65 43 65" id="U"/><path fill="#333" d="M135-194c87-1 58 113 63 194h-50c-7-57 23-157-34-157-59 0-34 97-39 157H25l-1-190h47c2 12-1 28 3 38 12-26 28-41 61-42" id="V"/><path fill="#333" d="M115-3C79 11 28 4 28-45v-112H4v-33h27l15-45h31v45h36v33H77v99c-1 23 16 31 38 25v30" id="W"/><path fill="#333" d="M25-224v-37h50v37H25zM25 0v-190h50V0H25" id="X"/><path fill="#333" d="M85 4C-2 5 27-109 22-190h50c7 57-23 150 33 157 60-5 35-97 40-157h50l1 190h-47c-2-12 1-28-3-38-12 25-28 42-61 42" id="Y"/><g id="m"><use transform="matrix(0.09259259259259256,0,0,0.09259259259259256,0,0)" xlink:href="#T"/><use transform="matrix(0.09259259259259256,0,0,0.09259259259259256,23.981481481481474,0)" xlink:href="#U"/><use transform="matrix(0.09259259259259256,0,0,0.09259259259259256,44.259259259259245,0)" xlink:href="#V"/><use transform="matrix(0.09259259259259256,0,0,0.09259259259259256,64.53703703703701,0)" xlink:href="#W"/><use transform="matrix(0.09259259259259256,0,0,0.09259259259259256,75.55555555555553,0)" xlink:href="#X"/><use transform="matrix(0.09259259259259256,0,0,0.09259259259259256,84.81481481481478,0)" xlink:href="#V"/><use transform="matrix(0.09259259259259256,0,0,0.09259259259259256,105.09259259259255,0)" xlink:href="#U"/><use transform="matrix(0.09259259259259256,0,0,0.09259259259259256,125.37037037037032,0)" xlink:href="#Y"/><use transform="matrix(0.09259259259259256,0,0,0.09259259259259256,145.6481481481481,0)" xlink:href="#S"/></g><path fill="#333" d="M76-208v77h127v40H76V0H24v-248h183v40H76" id="Z"/><path fill="#333" d="M88-194c31-1 46 15 58 34l-1-101h50l1 261h-48c-2-10 0-23-3-31C134-8 116 4 84 4 32 4 16-41 15-95c0-56 19-97 73-99zm17 164c33 0 40-30 41-66 1-37-9-64-41-64s-38 30-39 65c0 43 13 65 39 65" id="aa"/><path fill="#333" d="M135-194c52 0 70 43 70 98 0 56-19 99-73 100-30 1-46-15-58-35L72 0H24l1-261h50v104c11-23 29-37 60-37zM114-30c31 0 40-27 40-66 0-37-7-63-39-63s-41 28-41 65c0 36 8 64 40 64" id="ab"/><path fill="#333" d="M133-34C117-15 103 5 69 4 32 3 11-16 11-54c-1-60 55-63 116-61 1-26-3-47-28-47-18 1-26 9-28 27l-52-2c7-38 36-58 82-57s74 22 75 68l1 82c-1 14 12 18 25 15v27c-30 8-71 5-69-32zm-48 3c29 0 43-24 42-57-32 0-66-3-65 30 0 17 8 27 23 27" id="ac"/><path fill="#333" d="M190-63c-7 42-38 67-86 67-59 0-84-38-90-98-12-110 154-137 174-36l-49 2c-2-19-15-32-35-32-30 0-35 28-38 64-6 74 65 87 74 30" id="ad"/><path fill="#333" d="M147 0L96-86 75-71V0H25v-261h50v150l67-79h53l-66 74L201 0h-54" id="ae"/><g id="n"><use transform="matrix(0.09259259259259256,0,0,0.09259259259259256,0,0)" xlink:href="#Z"/><use transform="matrix(0.09259259259259256,0,0,0.09259259259259256,20.27777777777777,0)" xlink:href="#O"/><use transform="matrix(0.09259259259259256,0,0,0.09259259259259256,38.79629629629628,0)" xlink:href="#O"/><use transform="matrix(0.09259259259259256,0,0,0.09259259259259256,57.314814814814795,0)" xlink:href="#aa"/><use transform="matrix(0.09259259259259256,0,0,0.09259259259259256,77.59259259259257,0)" xlink:href="#ab"/><use transform="matrix(0.09259259259259256,0,0,0.09259259259259256,97.87037037037034,0)" xlink:href="#ac"/><use transform="matrix(0.09259259259259256,0,0,0.09259259259259256,116.38888888888884,0)" xlink:href="#ad"/><use transform="matrix(0.09259259259259256,0,0,0.09259259259259256,134.90740740740736,0)" xlink:href="#ae"/></g></defs></g></svg>